G75*
%MOIN*%
%OFA0B0*%
%FSLAX25Y25*%
%IPPOS*%
%LPD*%
%AMOC8*
5,1,8,0,0,1.08239X$1,22.5*
%
%ADD10C,0.07099*%
%ADD11R,0.07887X0.07099*%
%ADD12R,0.07300X0.04737*%
%ADD13C,0.04800*%
D10*
X0025022Y0009426D03*
X0025022Y0017300D03*
X0025022Y0025174D03*
X1188022Y0025174D03*
X1188022Y0017300D03*
X1188022Y0009426D03*
D11*
X1009022Y0011788D03*
X0777022Y0011788D03*
X0574022Y0011788D03*
X0357022Y0012788D03*
X0140022Y0011788D03*
X0140022Y0022812D03*
X0357022Y0023812D03*
X0574022Y0022812D03*
X0777022Y0022812D03*
X1009022Y0022812D03*
D12*
X1026876Y0023599D03*
X1047168Y0023599D03*
X0815168Y0023599D03*
X0794876Y0023599D03*
X0614168Y0023599D03*
X0593876Y0023599D03*
X0397168Y0023599D03*
X0376876Y0023599D03*
X0181168Y0023599D03*
X0160876Y0023599D03*
X0160876Y0011001D03*
X0181168Y0011001D03*
X0376876Y0011001D03*
X0397168Y0011001D03*
X0593876Y0011001D03*
X0614168Y0011001D03*
X0794876Y0011001D03*
X0815168Y0011001D03*
X1026876Y0011001D03*
X1047168Y0011001D03*
D13*
X1016959Y0011143D03*
X0788613Y0011143D03*
X0587825Y0011143D03*
X0369321Y0011143D03*
X0174439Y0011143D03*
X0327983Y0022954D03*
X0566172Y0022954D03*
X0768928Y0022954D03*
X0824046Y0020985D03*
X1176408Y0022954D03*
M02*
