G75*
%MOIN*%
%OFA0B0*%
%FSLAX25Y25*%
%IPPOS*%
%LPD*%
%AMOC8*
5,1,8,0,0,1.08239X$1,22.5*
%
%ADD10C,0.00600*%
%ADD11C,0.00800*%
%ADD12C,0.00500*%
%ADD13C,0.01600*%
D10*
X0013022Y0001300D02*
X0013022Y0033300D01*
X1196022Y0033300D01*
X1196022Y0001300D01*
X0013022Y0001300D01*
X0449322Y0010600D02*
X0453592Y0010600D01*
X0455768Y0010600D02*
X0455768Y0014870D01*
X0458970Y0014870D01*
X0460038Y0013803D01*
X0460038Y0010600D01*
X0462213Y0011668D02*
X0463281Y0010600D01*
X0466483Y0010600D01*
X0468659Y0010600D02*
X0470794Y0010600D01*
X0469726Y0010600D02*
X0469726Y0014870D01*
X0468659Y0014870D01*
X0466483Y0014870D02*
X0463281Y0014870D01*
X0462213Y0013803D01*
X0462213Y0011668D01*
X0479401Y0011668D02*
X0479401Y0013803D01*
X0480469Y0014870D01*
X0482604Y0014870D01*
X0483671Y0013803D01*
X0483671Y0012735D01*
X0479401Y0012735D01*
X0485847Y0012735D02*
X0490117Y0012735D01*
X0490117Y0013803D01*
X0489049Y0014870D01*
X0486914Y0014870D01*
X0485847Y0013803D01*
X0485847Y0011668D01*
X0486914Y0010600D01*
X0489049Y0010600D01*
X0492292Y0010600D02*
X0492292Y0014870D01*
X0492292Y0012735D02*
X0494427Y0014870D01*
X0495495Y0014870D01*
X0497663Y0014870D02*
X0498731Y0014870D01*
X0498731Y0010600D01*
X0499798Y0010600D02*
X0497663Y0010600D01*
X0501960Y0010600D02*
X0501960Y0014870D01*
X0505163Y0014870D01*
X0506231Y0013803D01*
X0506231Y0010600D01*
X0508406Y0011668D02*
X0509473Y0010600D01*
X0512676Y0010600D01*
X0482604Y0010600D02*
X0480469Y0010600D01*
X0479401Y0011668D01*
X0508406Y0011668D02*
X0508406Y0013803D01*
X0509473Y0014870D01*
X0512676Y0014870D01*
X0512676Y0009532D01*
X0511609Y0008465D01*
X0510541Y0008465D01*
X0466483Y0009532D02*
X0465416Y0008465D01*
X0464348Y0008465D01*
X0466483Y0009532D02*
X0466483Y0014870D01*
X0472956Y0014870D02*
X0476158Y0014870D01*
X0477226Y0013803D01*
X0477226Y0010600D01*
X0472956Y0010600D02*
X0472956Y0014870D01*
X0451457Y0013803D02*
X0449322Y0013803D01*
X0449322Y0017005D02*
X0449322Y0010600D01*
X0305161Y0015600D02*
X0300891Y0015600D01*
X0303026Y0015600D02*
X0303026Y0022005D01*
X0300891Y0019870D01*
X0289047Y0019870D02*
X0286912Y0015600D01*
X0284777Y0019870D01*
X0276156Y0019870D02*
X0272954Y0019870D01*
X0271886Y0018803D01*
X0272954Y0017735D01*
X0275089Y0017735D01*
X0276156Y0016668D01*
X0275089Y0015600D01*
X0271886Y0015600D01*
X0269724Y0015600D02*
X0268657Y0016668D01*
X0268657Y0020938D01*
X0253597Y0020938D02*
X0253597Y0018803D01*
X0252530Y0017735D01*
X0249327Y0017735D01*
X0255772Y0016668D02*
X0256840Y0017735D01*
X0260043Y0017735D01*
X0262218Y0017735D02*
X0264353Y0019870D01*
X0265421Y0019870D01*
X0267589Y0019870D02*
X0269724Y0019870D01*
X0262218Y0019870D02*
X0262218Y0015600D01*
X0260043Y0015600D02*
X0256840Y0015600D01*
X0255772Y0016668D01*
X0247165Y0015600D02*
X0246097Y0016668D01*
X0246097Y0020938D01*
X0252530Y0022005D02*
X0253597Y0020938D01*
X0252530Y0022005D02*
X0249327Y0022005D01*
X0249327Y0015600D01*
X0239659Y0015600D02*
X0239659Y0019870D01*
X0241794Y0019870D02*
X0242861Y0019870D01*
X0241794Y0019870D02*
X0239659Y0017735D01*
X0237483Y0017735D02*
X0234281Y0017735D01*
X0233213Y0016668D01*
X0234281Y0015600D01*
X0237483Y0015600D01*
X0237483Y0018803D01*
X0236416Y0019870D01*
X0234281Y0019870D01*
X0231038Y0018803D02*
X0229970Y0019870D01*
X0228903Y0018803D01*
X0228903Y0015600D01*
X0231038Y0015600D02*
X0231038Y0018803D01*
X0228903Y0018803D02*
X0227835Y0019870D01*
X0226768Y0019870D01*
X0226768Y0015600D01*
X0224592Y0016668D02*
X0223525Y0015600D01*
X0221390Y0015600D01*
X0220322Y0016668D01*
X0224592Y0016668D02*
X0224592Y0017735D01*
X0223525Y0018803D01*
X0221390Y0018803D01*
X0220322Y0019870D01*
X0220322Y0020938D01*
X0221390Y0022005D01*
X0223525Y0022005D01*
X0224592Y0020938D01*
X0245030Y0019870D02*
X0247165Y0019870D01*
X0256840Y0019870D02*
X0258975Y0019870D01*
X0260043Y0018803D01*
X0260043Y0015600D01*
X0291223Y0016668D02*
X0295493Y0020938D01*
X0295493Y0016668D01*
X0294425Y0015600D01*
X0292290Y0015600D01*
X0291223Y0016668D01*
X0291223Y0020938D01*
X0292290Y0022005D01*
X0294425Y0022005D01*
X0295493Y0020938D01*
X0426322Y0020600D02*
X0430592Y0020600D01*
X0432768Y0021668D02*
X0433835Y0020600D01*
X0435970Y0020600D01*
X0437038Y0021668D01*
X0437038Y0023803D01*
X0435970Y0024870D01*
X0433835Y0024870D01*
X0432768Y0023803D01*
X0432768Y0021668D01*
X0445659Y0021668D02*
X0446726Y0020600D01*
X0449929Y0020600D01*
X0454239Y0020600D02*
X0456374Y0024870D01*
X0459617Y0024870D02*
X0461752Y0024870D01*
X0462820Y0023803D01*
X0462820Y0020600D01*
X0459617Y0020600D01*
X0458550Y0021668D01*
X0459617Y0022735D01*
X0462820Y0022735D01*
X0446726Y0024870D02*
X0445659Y0023803D01*
X0445659Y0021668D01*
X0443483Y0020600D02*
X0443483Y0023803D01*
X0442416Y0024870D01*
X0439213Y0024870D01*
X0439213Y0020600D01*
X0426322Y0020600D02*
X0426322Y0027005D01*
X0446726Y0024870D02*
X0449929Y0024870D01*
X0449929Y0019532D01*
X0448861Y0018465D01*
X0447794Y0018465D01*
X0469726Y0018073D02*
X0469726Y0017005D01*
X0453592Y0017005D02*
X0449322Y0017005D01*
X0498731Y0017005D02*
X0498731Y0018073D01*
X0454239Y0020600D02*
X0452104Y0024870D01*
X0298736Y0016668D02*
X0298736Y0015600D01*
X0297668Y0015600D01*
X0297668Y0016668D01*
X0298736Y0016668D01*
D11*
X0377022Y0017300D02*
X0387022Y0027300D01*
X0396702Y0027500D02*
X0396702Y0027510D01*
X0377142Y0027510D01*
X0377142Y0026620D01*
X0396902Y0026430D02*
X0396902Y0027500D01*
X0396702Y0027500D01*
X0594142Y0027510D02*
X0594142Y0026620D01*
X0594022Y0017300D02*
X0604022Y0027300D01*
X0613702Y0027500D02*
X0613702Y0027510D01*
X0594142Y0027510D01*
X0613702Y0027500D02*
X0613902Y0027500D01*
X0613902Y0026430D01*
X0795142Y0026620D02*
X0795142Y0027510D01*
X0814702Y0027510D01*
X0814702Y0027500D01*
X0814902Y0027500D01*
X0814902Y0026430D01*
X0805022Y0027300D02*
X0795022Y0017300D01*
X0795022Y0020700D01*
X0815022Y0020800D02*
X0815022Y0014100D01*
X0795022Y0013900D02*
X0795022Y0017300D01*
X0614022Y0014100D02*
X0614022Y0020800D01*
X0594022Y0020700D02*
X0594022Y0017300D01*
X0594022Y0013900D01*
X0397022Y0014100D02*
X0397022Y0020800D01*
X0377022Y0020700D02*
X0377022Y0017300D01*
X0377022Y0013900D01*
X0181022Y0014100D02*
X0181022Y0020800D01*
X0161022Y0020700D02*
X0161022Y0017300D01*
X0171022Y0027300D01*
X0180702Y0027500D02*
X0180702Y0027510D01*
X0161142Y0027510D01*
X0161142Y0026620D01*
X0180902Y0026430D02*
X0180902Y0027500D01*
X0180702Y0027500D01*
X0161022Y0017300D02*
X0161022Y0013900D01*
X0180822Y0008000D02*
X0180822Y0007000D01*
X0180622Y0007000D01*
X0180622Y0007020D01*
X0161132Y0007020D01*
X0161132Y0007930D01*
X0377132Y0007930D02*
X0377132Y0007020D01*
X0396622Y0007020D01*
X0396622Y0007000D01*
X0396822Y0007000D01*
X0396822Y0008000D01*
X0594132Y0007930D02*
X0594132Y0007020D01*
X0613622Y0007020D01*
X0613622Y0007000D01*
X0613822Y0007000D01*
X0613822Y0008000D01*
X0795132Y0007930D02*
X0795132Y0007020D01*
X0814622Y0007020D01*
X0814622Y0007000D01*
X0814822Y0007000D01*
X0814822Y0008000D01*
X1027022Y0013900D02*
X1027022Y0017300D01*
X1037022Y0027300D01*
X1046702Y0027500D02*
X1046702Y0027510D01*
X1027142Y0027510D01*
X1027142Y0026620D01*
X1046902Y0026430D02*
X1046902Y0027500D01*
X1046702Y0027500D01*
X1188022Y0030292D02*
X1194321Y0030292D01*
X1194321Y0032851D01*
X1164400Y0032851D01*
X1164400Y0001749D01*
X1194321Y0001749D01*
X1194321Y0004308D01*
X1188022Y0004308D01*
X1046822Y0007000D02*
X1046622Y0007000D01*
X1046622Y0007020D01*
X1027132Y0007020D01*
X1027132Y0007930D01*
X1046822Y0008000D02*
X1046822Y0007000D01*
X1047022Y0014100D02*
X1047022Y0020800D01*
X1027022Y0020700D02*
X1027022Y0017300D01*
D12*
X1004272Y0017867D02*
X1003955Y0017550D01*
X1004272Y0017867D02*
X1004272Y0018501D01*
X1003955Y0018818D01*
X1003321Y0018818D01*
X1003004Y0018501D01*
X1003004Y0018184D01*
X1003321Y0017550D01*
X1002370Y0017550D01*
X1002370Y0018818D01*
X1002687Y0016608D02*
X1002370Y0016291D01*
X1002370Y0015657D01*
X1002687Y0015340D01*
X1003955Y0015340D01*
X1004272Y0015657D01*
X1004272Y0016291D01*
X1003955Y0016608D01*
X1176370Y0016684D02*
X1176370Y0017318D01*
X1176370Y0017001D02*
X1177955Y0017001D01*
X1178272Y0016684D01*
X1178272Y0016367D01*
X1177955Y0016050D01*
X1178272Y0018260D02*
X1178272Y0019528D01*
X1178272Y0018894D02*
X1176370Y0018894D01*
X1177004Y0018260D01*
X1038540Y0028867D02*
X1038223Y0028550D01*
X1037589Y0028550D01*
X1037272Y0028867D01*
X1036330Y0028867D02*
X1036330Y0030135D01*
X1036013Y0030452D01*
X1035062Y0030452D01*
X1035062Y0028550D01*
X1036013Y0028550D01*
X1036330Y0028867D01*
X1038540Y0028867D02*
X1038540Y0029501D01*
X1038223Y0029818D01*
X1037906Y0029818D01*
X1037272Y0029501D01*
X1037272Y0030452D01*
X1038540Y0030452D01*
X0806540Y0029501D02*
X0805272Y0029501D01*
X0806223Y0030452D01*
X0806223Y0028550D01*
X0804330Y0028867D02*
X0804013Y0028550D01*
X0803062Y0028550D01*
X0803062Y0030452D01*
X0804013Y0030452D01*
X0804330Y0030135D01*
X0804330Y0028867D01*
X0605540Y0028867D02*
X0605223Y0028550D01*
X0604589Y0028550D01*
X0604272Y0028867D01*
X0603330Y0028867D02*
X0603330Y0030135D01*
X0603013Y0030452D01*
X0602062Y0030452D01*
X0602062Y0028550D01*
X0603013Y0028550D01*
X0603330Y0028867D01*
X0605223Y0029501D02*
X0605540Y0029184D01*
X0605540Y0028867D01*
X0605223Y0029501D02*
X0604906Y0029501D01*
X0605223Y0029501D02*
X0605540Y0029818D01*
X0605540Y0030135D01*
X0605223Y0030452D01*
X0604589Y0030452D01*
X0604272Y0030135D01*
X0388540Y0029818D02*
X0388540Y0030135D01*
X0388223Y0030452D01*
X0387589Y0030452D01*
X0387272Y0030135D01*
X0386330Y0030135D02*
X0386013Y0030452D01*
X0385062Y0030452D01*
X0385062Y0028550D01*
X0386013Y0028550D01*
X0386330Y0028867D01*
X0386330Y0030135D01*
X0387272Y0028550D02*
X0388540Y0029818D01*
X0388540Y0028550D02*
X0387272Y0028550D01*
X0172540Y0028550D02*
X0171272Y0028550D01*
X0171906Y0028550D02*
X0171906Y0030452D01*
X0171272Y0029818D01*
X0170330Y0030135D02*
X0170013Y0030452D01*
X0169062Y0030452D01*
X0169062Y0028550D01*
X0170013Y0028550D01*
X0170330Y0028867D01*
X0170330Y0030135D01*
X0350370Y0019501D02*
X0350687Y0019818D01*
X0351004Y0019818D01*
X0352272Y0018550D01*
X0352272Y0019818D01*
X0350370Y0019501D02*
X0350370Y0018867D01*
X0350687Y0018550D01*
X0350687Y0017608D02*
X0350370Y0017291D01*
X0350370Y0016657D01*
X0350687Y0016340D01*
X0351955Y0016340D01*
X0352272Y0016657D01*
X0352272Y0017291D01*
X0351955Y0017608D01*
X0567370Y0017867D02*
X0567687Y0017550D01*
X0567370Y0017867D02*
X0567370Y0018501D01*
X0567687Y0018818D01*
X0568004Y0018818D01*
X0568321Y0018501D01*
X0568638Y0018818D01*
X0568955Y0018818D01*
X0569272Y0018501D01*
X0569272Y0017867D01*
X0568955Y0017550D01*
X0568321Y0018184D02*
X0568321Y0018501D01*
X0567687Y0016608D02*
X0567370Y0016291D01*
X0567370Y0015657D01*
X0567687Y0015340D01*
X0568955Y0015340D01*
X0569272Y0015657D01*
X0569272Y0016291D01*
X0568955Y0016608D01*
X0770370Y0016291D02*
X0770370Y0015657D01*
X0770687Y0015340D01*
X0771955Y0015340D01*
X0772272Y0015657D01*
X0772272Y0016291D01*
X0771955Y0016608D01*
X0770687Y0016608D02*
X0770370Y0016291D01*
X0771321Y0017550D02*
X0771321Y0018818D01*
X0770370Y0018501D02*
X0771321Y0017550D01*
X0772272Y0018501D02*
X0770370Y0018501D01*
X0135272Y0017550D02*
X0135272Y0018818D01*
X0135272Y0018184D02*
X0133370Y0018184D01*
X0134004Y0017550D01*
X0133687Y0016608D02*
X0133370Y0016291D01*
X0133370Y0015657D01*
X0133687Y0015340D01*
X0134955Y0015340D01*
X0135272Y0015657D01*
X0135272Y0016291D01*
X0134955Y0016608D01*
D13*
X0159772Y0028550D03*
X0375772Y0028550D03*
X0592772Y0028550D03*
X0793772Y0028550D03*
X1025772Y0028550D03*
M02*
